<?xml version="1.0" encoding="utf-8"?>
<!-- Generator: Adobe Illustrator 22.0.1, SVG Export Plug-In . SVG Version: 6.00 Build 0)  -->
<svg version="1.1" id="レイヤー_1" xmlns:vectornator="http://vectornator.io"
	 xmlns="http://www.w3.org/2000/svg" xmlns:xlink="http://www.w3.org/1999/xlink" x="0px" y="0px" width="1032px" height="1668px"
	 viewBox="0 0 1032 1668" enable-background="new 0 0 1032 1668" xml:space="preserve">
<g vectornator:blendMode="Multiply" vectornator:layerName="蜀咏悄">
</g>
<g id="CnfySide">
	<g id="Sk">
		<path fill="#70B8D8" d="M76.8-563.2c41.8,0,68,8,86,32.4C181-506.4,352.1-157.4,324.4-93.1C296.6-28.8,230.1-8,191,4.2
			c-39,12.2-145.8,34.4-203.3,33C-189,32.8-315-69-315.6-126c-1-88.8,102.6-412.7,210.8-427C3.2-567.3,34.8-563.2,76.8-563.2z"/>
		<path fill="#4A98B9" d="M-299.4-223.6c-10.5,41-16.4,76.3-16.2,97.6C-315-69-189,32.8-12.3,37.2C45.2,38.6,152,16.4,191,4.2
			c39.1-12.2,105.6-33,133.4-97.3c6.9-16,1.5-49.7-10.8-91.5c-83.4,52.8-212.3,92.5-301,90.1c-88.8-2.4-228.1-46.5-312-129V-223.6z"
			/>
		<path fill="#396F8E" d="M-308.1-185.3c-4.8,24.2-7.7,45-7.5,59.3C-315-69-189,32.8-12.3,37.2C45.2,38.6,152,16.4,191,4.2
			c39.1-12.2,105.6-33,133.4-97.3c5-11.7,3.4-33-2.5-59.8c-81,42.6-230,109-350,91C-135.1-78-221.5-118.2-308.1-185.3z"/>
		<g>
			<path fill="#FFF8DD" d="M-282.6-123.8l13.8,8.3c1.7,1,2,1.1,2.7,1.2c0.8,0,1.7-0.4,2.5-1c2-2,2.3-5,0.5-7.2
				c-0.8-1-1.3-1.2-3.2-1.5l-15.1-2.2l13-8.3l1.3-1c2-1.8,2-4.2,0.2-6.5c-2-2.2-4-2.4-6-0.4c-0.5,0.4-0.9,0.8-1,1.2l-9.3,12.8
				l-0.3-16.4c0-2-0.2-2.6-1-3.5c-1.4-1.8-4.1-2.2-5.9-0.8c-0.1,0.1-0.2,0.2-0.3,0.3c-1.6,1.5-1.9,3-0.9,5.6l5.7,15.5l-13.7-8.1
				c-2.4-1.4-3.8-1.3-5.4,0.1c-1.9,1.8-2.1,4.7-0.4,6.7c0.8,0.9,1.4,1.2,3.1,1.5l15.4,2.5l-13.3,7.9c-0.5,0.3-0.9,0.6-1.3,1
				c-1.2,1-1.6,1.9-1.6,3c0,1.2,0.4,2.3,1.2,3.2c1.9,2.3,4.1,2.7,6,1l1.3-1.4l9.5-12.5v16.1c0,2,0.2,2.6,1,3.5
				c1.5,2,4.3,2.3,6.3,0.8c0.1-0.1,0.3-0.2,0.4-0.3c0.7-0.6,1.2-1.5,1.3-2.4c0-0.9,0-1.1-0.7-3L-282.6-123.8L-282.6-123.8z
				 M-221.4-77.2l-10.7-1.3l2,6c0.2,0.9,0.4,1.7,0.4,2.4c0,0.8-0.2,1.4-0.7,2c0.2-0.2,0.1-0.2-0.2,0l-1,0.7c-0.3,0.3-0.7,0.7-1,1
				c-0.5,0-1-0.2-1.6-0.7c-2.4-1.9-4-4.6-4.5-7.6l-1.9,1.8c-0.7,1-1,3.2-1.1,6.8l-0.8,0.9c-2.4-0.5-3.7-0.8-4-1
				c-1-0.8-1.3-2.6-1-5.4v0.1c0.5-2.6,0.8-5.2,1.1-7.8l-7.6,0.5c-2.7,0.2-4.6-0.2-5.7-1l-1-1.1l-1-1.8l1.4-1.7l10.8-1.2
				c0-0.8-0.3-1.7-0.7-2.8c-0.6-1.3-1.5-2.5-2.6-3.4l-2.2-2.5c-0.4-0.5-0.8-1.1-1-1.7c2.3-1.7,4.6-2,7-1l2.4,1.5l4.4,3.3l0.3-0.9
				l0.1-0.8l0.2-1l0.1-1.3c0.2-0.4,0.2-1,0.1-1.4c0-2,0.3-3.4,0.6-3.8c0.7-0.8,1.7-1.2,3.2-1.3c1.4,0,2.5,0.2,3.3,0.7c1,0.8,1,3,0,7
				l-2,8.9l16.8,1.4c0.4,0.4,0.6,0.8,0.7,1.4c0,0.6,0,1.3-0.2,2c-0.5,1.4-1.3,2.6-2.2,3.8L-221.4-77.2z M-188.9-57.8l18.8,2.6
				c2.4,0.3,2.7,0.4,3.6,0.1c0.9-0.3,1.7-1,2.3-2c1.5-2.9,0.5-6-2.4-7.5c-1.2-0.6-1.8-0.6-4-0.1l-18,4l11.2-13.7
				c0.4-0.5,0.9-1.1,1-1.5c1.6-2.8,0.7-5.1-2.4-6.7c-3-1.5-5.3-0.8-6.9,2c-0.3,0.5-0.5,1.1-0.7,1.7l-5,16.7l-7-16.5
				c-0.8-1.9-1.3-2.4-2.6-3c-2.5-1.4-5.7-0.5-7.2,2c-1.1,2.2-0.8,3.8,1.4,6l12.6,13.3l-18.6-2.5c-3.2-0.4-4.7,0.2-5.9,2.3
				c-1.3,2.4-0.4,5.5,2,6.8c0.1,0,0.1,0.1,0.2,0.1c1.3,0.6,2,0.7,4.1,0.2l18.3-3.8l-11.7,13.5c-0.4,0.5-0.7,1-1,1.5
				c-0.9,1.5-1,2.6-0.6,3.7c0.5,1.2,1.5,2.2,2.7,2.8c3,1.5,5.7,1,7-1.6c0.5-0.7,0.7-1.1,1-1.9l5.5-16.5l6.6,16.3
				c0.8,2,1.2,2.5,2.5,3.1c2.8,1.5,6.1,0.5,7.7-2.3c0.6-1,0.7-2,0.5-3c-0.3-0.8-0.5-1-2-2.7L-188.9-57.8L-188.9-57.8z M-116.7-41.5
				l-10.5,2.4l4.1,5c0.6,0.7,1,1.4,1.4,2.1c0.3,0.7,0.3,1.4,0,2l-0.2,0.2l-0.6,1c-0.2,0.4-0.4,0.8-0.6,1.2c-0.4,0.2-1,0.2-1.7,0
				c-3-0.9-5.3-2.8-7.1-5.7l-1,2.4c-0.4,1,0,3.3,1.4,6.7l-0.4,1.1c-2.4,0.4-3.7,0.5-4,0.4c-1.3-0.4-2.3-2-3-4.6
				c-0.6-2.6-1.2-5.1-1.9-7.6l-6.9,3c-2.5,1-4.4,1.4-5.7,1c-0.4-0.1-0.8-0.4-1.3-0.7l-1.7-1.3l0.7-2.1c0,0,3.2-1.7,9.7-4.8
				c-0.5-0.9-1.1-1.7-1.8-2.4c-0.8-0.9-2-1.6-3.6-2.3c-1.2-0.5-2.2-1-3-1.6c-0.8-0.4-1.3-0.9-1.6-1.3c1.3-2.1,3.7-3.4,6.2-3.2
				l2.8,0.5l5.3,1.7v-1l-0.2-0.8l-0.3-1l-0.3-1.2c0-0.5-0.2-1-0.4-1.4c-0.8-2-1-3.2-0.9-3.7c0.3-1,1.2-1.7,2.5-2.3
				c1.3-0.5,2.4-0.7,3.3-0.4c1.2,0.3,2,2.5,2.7,6.4l1.4,9l16.2-4.2c0.5,0.1,1,0.5,1.2,1c0.3,0.6,0.4,1.2,0.5,1.9
				c0.1,0.7,0.1,1.5,0,2.2c-0.2,0.8-0.3,1.5-0.6,2L-116.7-41.5L-116.7-41.5z M-82.1-18.1l18.6-3.5c2.4-0.4,2.6-0.5,3.4-1
				c0.7-0.6,1.3-1.5,1.4-2.7c0.5-3.1-1.5-5.8-4.7-6.2c-1.4-0.2-2,0-4,1.1L-82.8-21l5.7-16.4l0.5-1.8c0.5-3-1.2-5-4.6-5.5
				s-5.3,0.9-5.8,4l-0.1,1.8l1,17.5l-12.3-13.4c-1.4-1.5-2-2-3.5-2.1c-3-0.4-5.6,1.4-6,4.3c-0.4,2.3,0.4,3.7,3.3,5.2l16.5,8.5
				l-18.4,3.5c-3.2,0.6-4.4,1.7-4.8,4c-0.4,2.8,1.5,5.4,4.3,5.8c0.1,0,0.1,0,0.2,0c1.4,0.2,2.2,0,4-1l15.9-9.4l-6.4,16.4l-0.4,1.7
				c-0.3,1.8,0,2.8,0.7,3.7c0.8,1,2,1.6,3.5,1.8c3.4,0.5,5.7-0.9,6.2-3.7c0.1-0.8,0.2-1.3,0.1-2l-0.5-17.4l11.9,13.3
				c1.5,1.6,2,2,3.4,2.2c3.3,0.4,6-1.5,6.5-4.7c0.2-1,0-2.1-0.6-3c-0.5-0.6-0.8-0.8-2.9-1.9l-16.8-8.5L-82.1-18.1z M-8.5-23.5
				l-9.3,5.3l5.5,3.6c0.8,0.5,1.4,1,2,1.6c0.4,0.6,0.7,1.2,0.7,2c0-0.3,0-0.3-0.2,0.2l-0.3,1c-0.1,0.5-0.1,0.9-0.2,1.4
				c-0.4,0.3-0.9,0.5-1.7,0.5c-3.2-0.1-6.2-1.3-8.5-3.4l-0.2,2.6c0,1,1.1,3,3.5,6v1.1c-2.2,1-3.5,1.5-3.8,1.5
				c-1.3,0-2.7-1.1-4.3-3.5c-1.3-2.3-2.7-4.5-4.2-6.7l-5.6,4.9c-2,1.7-3.7,2.5-5.1,2.5c-0.4,0-1,0-1.6-0.3c-0.7-0.2-1.3-0.4-2-0.7
				v-2.2l7.8-7.3c-0.7-0.7-1.5-1.3-2.4-1.8c-1.1-0.6-2.5-1-4.2-1.2c-1.1-0.2-2.3-0.4-3.4-0.6c-0.9-0.3-1.5-0.5-1.9-0.8
				c0.6-2.5,2.5-4.4,5-4.9l2.7-0.3l5.6,0.1l-0.3-0.9l-0.5-0.8l-0.6-0.9l-0.6-1c-0.2-0.5-0.5-0.9-0.9-1.2c-1.3-1.6-2-2.7-2-3.3
				c0-1,0.6-2,1.7-2.9c1-0.9,2.1-1.3,3-1.3c1.3,0,2.8,1.7,4.6,5.3l4.1,8.3l14.2-8.8c0.5,0,1,0.2,1.5,0.7c0.4,0.4,0.7,1,1,1.6
				c0.4,0.6,0.6,1.3,0.7,2.1l0.2,2.2L-8.5-23.5L-8.5-23.5z M37.3-15.8L55-22.4c2.2-0.8,2.5-1,3.1-1.6c0.6-0.7,1-1.7,1-2.9
				c-0.2-3.2-2.7-5.4-6-5.3c-1.3,0-1.9,0.3-3.6,1.8L36.1-18.5l2.6-17.2l0.1-1.8c0-3.1-2.1-4.7-5.6-4.6c-3.4,0-5,1.7-5,5
				c0,0.6,0.2,1.3,0.3,1.7l4.3,17l-14.7-11c-1.6-1.4-2.3-1.6-3.7-1.6c-3,0.1-5.3,2.4-5.2,5.2c0,2.4,1.1,3.7,4.3,4.6l17.8,5.6
				L13.8-9.2c-3,1.2-4,2.5-4,4.9c0.2,2.8,2.7,5,5.6,4.9c1.4,0,2.1-0.3,3.6-1.7l14-12L29.8,4.2L29.6,6c0.1,1.7,0.5,2.7,1.5,3.5
				c1,0.8,2.2,1.2,3.7,1.1c3.5,0,5.5-1.8,5.4-4.7c0-0.8,0-1.2-0.3-2l-3.7-17l14.2,11c1.8,1.4,2.4,1.7,3.8,1.6c3.3,0,5.6-2.4,5.5-5.6
				c0-1.2-0.4-2.2-1.1-2.9c-0.7-0.6-1-0.6-3.2-1.4l-18.1-5.5V-15.8z M114.7-26.9l-8.7,6l5.8,3.1l2,1.5c0.6,0.5,0.9,1.1,1,1.9
				c0-0.3-0.1-0.2-0.2,0.2l-0.2,1c0,0.5-0.1,1-0.1,1.5c-0.3,0.3-0.8,0.5-1.6,0.6c-3,0.2-6-0.7-8.8-2.7v2.6c0.1,1.1,1.5,3,4,5.7
				l0.1,1.1c-2,1.2-3.2,1.8-3.6,1.9c-1.3,0-2.8-1-4.6-3.2c-1.5-2.2-3.1-4.3-4.7-6.4l-5.2,5.4c-1.9,1.8-3.5,2.8-4.9,3l-1.5-0.2
				l-2-0.6l-0.3-2.2l7-8c-0.5-0.5-1.4-1-2.5-1.5c-1.2-0.5-2.6-0.8-4.3-0.8L78-17.4c-0.9-0.1-1.6-0.4-2-0.6c0.5-2.7,2-4.4,4.5-5.3
				c0.4-0.2,1.4-0.3,2.7-0.5l5.6-0.4c0-0.3-0.2-0.6-0.4-0.8l-0.5-0.8l-0.7-0.8l-0.7-1c-0.3-0.4-0.6-0.8-1-1.1
				c-1.5-1.5-2.2-2.6-2.3-3.2c0-1,0.4-2,1.4-3s2-1.5,3-1.6c1.2,0,2.8,1.6,5,5l4.8,7.9l13.3-10c0.6,0,1,0.2,1.5,0.6
				c0.5,0.4,1,1,1.3,1.5c0.4,0.6,0.6,1.3,0.8,2.1l0.4,2.1L114.7-26.9L114.7-26.9z M157.1-34.1l16.6-9c2-1.1,2.3-1.3,2.8-2
				c0.6-0.9,0.7-2,0.5-3c-0.6-3.1-3.4-5-6.6-4.4c-1.4,0.2-2,0.6-3.4,2.3l-11.5,13.6V-54c0-0.6,0-1.3-0.2-1.8c-0.5-3-2.8-4.4-6.2-3.8
				s-4.7,2.5-4.1,5.6c0,0.7,0.3,1.3,0.5,1.7l6.8,16.2L136.1-45c-1.8-1-2.6-1.1-4-1c-2.9,0.6-4.8,3.2-4.2,6c0.4,2.3,1.6,3.4,4.9,4
				l18.5,3l-16.4,8.8c-2.8,1.6-3.6,3-3.2,5.4c0.6,2.8,3.4,4.6,6.2,4c1.4-0.2,2-0.5,3.4-2.1l12-13.7l-0.6,17.4c0,0.5,0,1.1,0.2,1.8
				c0.3,1.8,0.9,2.7,2,3.3c1,0.6,2.4,0.8,3.8,0.6c3.4-0.6,5.1-2.6,4.6-5.4c-0.1-0.8-0.2-1.2-0.6-2l-6.2-16.3l15.7,9
				c2,1.1,2.6,1.3,4,1c3.2-0.5,5.2-3.2,4.6-6.4c-0.3-1.1-0.8-2-1.6-2.6c-0.7-0.5-1-0.5-3.4-1L157-34.1H157.1z M220.4-62.9l-5.7,6.7
				l5.1,1.5c0.8,0.2,1.4,0.5,2,0.8c0.5,0.3,0.8,0.8,1,1.4v1.2c0.1,0.4,0.1,0.8,0.2,1.2c-0.2,0.3-0.6,0.5-1.2,0.7
				c-2.4,0.8-5.1,0.6-7.4-0.5l0.5,2c0.3,1,1.7,2.3,4.3,4.1l0.2,1c-0.7,0.8-1.5,1.5-2.4,2.1c-1,0.4-2.4-0.3-4.2-1.8
				c-1.6-1.5-3.3-3-5-4.4l-3,5.4c-1.1,1.9-2.2,3-3.3,3.4l-1.2,0.1h-1.7l-0.6-1.9l4-7.9c-1.8-1-3.9-1.3-5.9-0.7l-2.7,0.3
				c-0.7,0-1.3,0-1.7-0.2c0-2.2,0.7-4,2.5-5.2l2.1-0.9l4.3-1.3l-0.5-0.7l-0.5-0.5c-0.2-0.2-0.4-0.4-0.7-0.6l-0.8-0.7
				c-0.2-0.3-0.6-0.5-1-0.7c-1.4-1-2.2-1.8-2.3-2.2c-0.3-0.8-0.1-1.7,0.5-2.8c0.6-1,1.2-1.6,2-1.9c0.9-0.3,2.5,0.8,4.8,3.3l5.4,5.6
				l8.5-10.7c0.4-0.1,0.9,0,1.3,0.2l1.3,1l1,1.6l0.7,1.7L220.4-62.9L220.4-62.9z M259.4-76.9L271-88.7c1.4-1.5,1.6-1.7,1.8-2.5
				c0.2-0.8,0-1.7-0.4-2.6c-1.4-2.5-4.5-3.4-7-2c-1.1,0.5-1.4,1-2.2,2.7l-6,14.5l-5-14.6c-0.2-0.5-0.4-1-0.6-1.5
				c-1.4-2.4-3.7-3-6.4-1.6c-2.8,1.3-3.4,3.2-2,5.8l1,1.3l10.5,11.9l-16.5-3.4c-1.8-0.4-2.5-0.3-3.7,0.2c-2.3,1.2-3.2,3.9-2,6.1
				c1.1,1.9,2.5,2.5,5.4,2l16.7-2.2l-11.4,11.7c-2,2-2.2,3.5-1.1,5.3c1.3,2.2,4.1,3.1,6.4,2c1.2-0.6,1.6-1.1,2.3-2.8l6.3-14.6
				l4.6,14.8l0.6,1.5c0.8,1.4,1.5,2,2.6,2.2c1.1,0.3,2.4,0.1,3.6-0.5c2.7-1.3,3.6-3.5,2.3-5.7c-0.3-0.5-0.6-1-1-1.5l-10.1-12.1
				l16,3.5c2.1,0.4,2.7,0.4,3.8-0.1c2.6-1.3,3.5-4.1,2-6.6c-0.4-0.8-1.1-1.4-2-1.8c-0.8-0.3-1-0.2-3.2,0l-17,2.4L259.4-76.9z
				 M312.6-127.2l-3,8.3l5.7-0.5h2.2c0.6,0.1,1.1,0.4,1.6,1c-0.2-0.3-0.2-0.2,0,0.2l0.4,0.8c0.2,0.3,0.4,0.7,0.6,1
				c0,0.4-0.3,0.8-0.8,1.2c-2.1,1.7-4.8,2.5-7.5,2.3l1.4,1.8c0.6,0.7,2.5,1.4,5.7,2.1l0.6,0.8l-1.5,3c-0.9,0.6-2.5,0.6-4.9-0.1
				c-2.2-0.8-4.4-1.5-6.6-2.2l-0.8,6.1c-0.4,2.2-1,3.7-2,4.4l-1,0.7l-1.8,0.5l-1.3-1.5l0.9-8.9c-2.1-0.3-4.3,0.3-6,1.6l-2.6,1.4
				c-0.7,0.4-1.3,0.5-1.7,0.5c-1-2-0.9-4,0.4-5.8c1.7-1.6,3.5-3.1,5.4-4.6c-0.3-0.1-0.5-0.2-0.8-0.3l-0.7-0.3l-1-0.3l-1-0.4
				l-1.2-0.3c-1.8-0.4-2.8-0.7-3.2-1.1c-0.5-0.7-0.7-1.6-0.5-2.8c0.1-1.2,0.5-2,1.1-2.5c0.9-0.6,2.9-0.3,6,1.2l7.5,3.2l4.3-13.2
				c0.3-0.3,0.8-0.4,1.3-0.4l1.6,0.5l1.7,1l1.3,1.4L312.6-127.2L312.6-127.2z"/>
		</g>
		
			<path fill="none" stroke="#4A98B9" stroke-width="12.4" stroke-linecap="round" stroke-linejoin="round" stroke-dasharray="1,30,10,30" d="
			M302.9-181.8C199-117.9,75.1-92.6-14.1-101.4c-104.1-9.6-202.9-50.4-283.4-117"/>
		
			<path fill="none" stroke="#396F8E" stroke-width="12.4" stroke-linecap="round" stroke-linejoin="round" stroke-dasharray="1,30,10,30" d="
			M316.5-156.2C212.5-92.4,73.2-55.9-16.1-64.8c-121.6-12-211.4-62.3-280.2-118.9"/>
		<path vectornator:blendMode="Multiply" fill="#70B8D8" d="M44.6-563.6c-31.6-0.5-69.7,0-150.8,10.7
			C-214.4-538.6-318-214.7-317-125.9c0.2,23.7,22.4,55.1,60.6,84c53-187,238.4-370.4,403.4-503.7c-17-13-39.8-17.6-71.5-17.6
			C65-563.2,55.2-563.5,44.6-563.6z"/>
	</g>
	<g id="HdBdGr">
		<g id="Hd">
			<g id="HrFr_1_">
				<path fill="#989282" d="M15-1262.2c28.8,47.4,51.8,148.1,41,218.5C45.4-973.3,31.2-918,13.1-893.5c-8.8,12.3-14.1,13.2-2.4,25
					c11.7,11.7,41,58,53.3,86.4c12.2,28.5,32.8,66.1,23,84.2c-9.9,18-10.9,17.5-22.6,21.4c-0.5,22.5-18.1,15.2-28.9,11.3
					c-1,9.3-19.5,11.7-31.7,7.3c-2.5,12.7-17.2,6.4-27-1.5c-9.6-7.8-24.4-37.1-23.8-68.9c0.5-31.8,4.4-111.5,6.4-129
					c2-17.7,3.4-23-10.8-18.7c-14.2,4.4-55.7,15.7-82.6,5c-49-20-85.3-62.5-97.3-114c-22-90-15-152.3-4.4-177.5
					c39.7-94.7,222-147.1,250.8-99.7H15z"/>
				<path fill="#3C80A6" stroke="#3C84A4" stroke-linecap="round" stroke-linejoin="round" d="M-26.8-881.6c-13-3-16.5,4-28.2,14.2
					c-11.8,10-65.7,70.7-62.6,83.6c3,12.8,34,37.3,45.5,30.3c11.4-7,45-100.3,47.6-109.8C-21.9-872.9-18.5-879.8-26.8-881.6z"/>
				<path fill="#235E78" stroke="#316F92" stroke-width="4.5" stroke-linecap="round" stroke-linejoin="round" d="M-21.6-876.5
					c0.2-5.7-14.8,11-21.6,26.2s-43.4,84.5-37.2,91.8c6.3,7.4,13.9,7.1,18.9-0.5C-56.6-766.5-21.8-866-21.6-876.5L-21.6-876.5z"/>
				<path fill="#3C80A6" stroke="#3C84A4" stroke-linecap="round" stroke-linejoin="round" d="M-23.6-886.1c7.8,3.5,10.2,5.3,8.4,24
					c-1.9,18.8-16.6,158.6-23.5,171.8s-33.6,14.2-32.3-7.6c1.4-21.8,20-106,25.8-140c5.8-34.1,13.6-51.7,21.5-48.2H-23.6z"/>
				<g>
					<path fill="#396F8E" d="M1-877c-10.3-2.8-38.4-9.3-52,2.7c-13.5,12-9.2,16.2-1.2,14.1c8-2,30.8-8.1,46.4-9.3
						C9.8-870.8,11.2-874.2,1-877z"/>
					<path fill="#3C80A6" stroke="#3C84A4" stroke-linecap="round" stroke-linejoin="round" d="M-0.6-878.9
						c-9.7-4.4-38.2-12.6-51.7-0.5c-13.6,12-9.4,25-0.7,15.7c5.8-6,31-12.8,46.4-10.4C9.4-871.6,11.2-873.5-0.6-878.9z"/>
				</g>
			</g>
			<path id="Face" fill="#FFF3E2" d="M151.5-1166.1c23,40.8,24.1,88.8,22.6,107.4c-1.5,18.7-5.3,54.6-9.2,64.4s-10.3,36-12.7,43.2
				s-7.7,38.8-11.4,48.2c-3.2,8.7-8.6,16.3-15.8,22.1c-6.7,5.1-25.3,19.6-34.7,21.4c-9.3,1.8-27.3,3.6-39.4,14
				c-11.6,11.6-17.6,27.6-16.5,44c1.6,12.6,12,19.5,12.6,31.2c0.8,11.6-7,40.2-13.4,47.1c-37.3,41-148.8,7-138.3-11
				c11-19,32-49,52-104.6c8.7-24.2-18.6-18.8-40.3-30.9c-21.7-12-137.3-42-132.8-155s31.5-192.6,87.4-222.8
				c56-30.2,106.7-39.5,150.1-27.2C74.7-1256.8,116.8-1227.5,151.5-1166.1z"/>
			<path id="HrTp1" fill="#989282" d="M98.5-1262.6c27.8,19,44.7,42.8,59.7,66.8s21.9,59,23.5,80.7c1.6,21.9-0.2,66.4-8.5,67
				c1.3-24.7-3-110.1-33-136.3c-29.8-26.2-158.2-25.5-226.4,3.6c-68.4,29.1-185.6,60-160.7-0.4c25-60.5,39.2-89.1,97.9-115.6
				c51.9-23.4,107-36,169.6-10.3c47.5,19.6,50,25.4,78,44.5H98.5z"/>
			<path id="Eye" fill="#534E48" d="M92-952.1c5.6,7.7,9.7,24.1,5.8,32.9c-1.9,4.1-6.8,12.3-13.6,9.3c-9.7-4.3-7.3-31.2-3.2-38.7
				C82.4-950.9,89.4-955.6,92-952.1L92-952.1z"/>
			<path id="HrTp2" fill="#989282" d="M146.2-1182.8c17.5,30.7,18.5,73.7,14.8,99c-3.7,25.2-15,79-46.2,76.2
				c-13.2,15.3-18.2,7.9-26.8,2.4c-11,21.4-22.7,17.7-27,8.6c-12,20.8-30-10.8-35.8-23.4c-5.7-12.6-65.7-164.4-23.6-196.2
				C43.7-1247.9,128.8-1213.5,146.2-1182.8L146.2-1182.8z"/>
			<path id="Mouse" fill="#E39C92" d="M125.5-892.4c-9.1-0.2-20,3.9-21.5,11.4c-1.2,5.8,3,8.6,7.6,10.2c5.4-3.8,10.9-7.8,13.6-10
				c3.4-2.5,6.4-5.7,9.1-9.5C132-891.6,128.9-892.3,125.5-892.4L125.5-892.4z"/>
			<g id="Cheek">
				<path fill="#D46E6E" stroke="#C55D5D" stroke-linejoin="round" d="M70.3-901.7c2.4,4.7,4.1,9.2,5.3,14.2
					c-2.1-4.5-4-9.2-6.2-13.7 M65.3-898.8c2.3,5.2,4.3,10.6,6,16v0.1c-2.6-5.1-4.4-10.5-6.5-15.9 M59.4-896.1
					c2.5,5.3,6.1,11.8,7.2,17.7c-3.2-5.6-5.6-11.5-8.1-17.4"/>
			</g>
		</g>
		<g id="BdTp">
			<path fill="#70B8D8" d="M56.8-762c16.4,14.2,90.2,144,77.6,180.9c-12.7,36.9-91.3,43.7-124,43.2c-32.6-0.5-140.2,3.2-139.2-28.5
				c1.1-31.5-20.4-178.2,23.2-186.5c43.8-8.5,56.5,17.9,94.4,13.7C26.8-743.4,40.5-776.2,56.8-762L56.8-762z"/>
			<path fill="#396F8E" stroke="#3C84A4" stroke-linecap="round" stroke-linejoin="round" d="M147.6-541.1
				c-5.8,9-18.6,9.9-33.3,12.2c-55.8,8.7-181.1,12.3-240.1-13.5c-14-6.2-20.2-40-4.2-46c12.5-4.8,71.6,21.1,116,20.6
				c44.2-0.5,105.8-1.6,132.6-7c13.2-2.7,21.6-1.6,24.7,8.4C146.5-556.4,153.3-550,147.6-541.1z"/>
			<path fill="#58A2CC" d="M50.5-781.3c10.5,4.5,26.5,31.2,19,54.7s-47,41.5-85,42c-50.4,0.5-108.8-30.5-103.5-58.7
				c5.3-28.2,9.2-22.9,18.4-18.8c9.2,4,39.6,34.5,64.4,33.8c24.8-0.6,45.5-2.3,67.2-18C43.8-755.7,45.8-783.3,50.5-781.3z"/>
			<path fill="#FFF8E2" d="M48.5-789.3c10.5,3.7,26.5,26,19,45.5s-47,34.5-85,34.8c-50.4,0.5-108-15-102.7-38.4
				c5.3-23.5,16.2-27.7,25.4-24.3c9.2,3.3,31.8,27,56.6,26.5c24.8-0.6,45.5-2,67.2-15C41.9-768,43.8-790.9,48.5-789.3L48.5-789.3z"
				/>
		</g>
		<g id="Rb1">
			<path fill="#3C80A6" stroke="#3C84A4" stroke-linecap="round" stroke-linejoin="round" d="M-121.4-633.6
				c-19.5-4.5-65,15.4-85.8,39c-20.7,23.6-80.8,111.8-82,127.6c-1.3,15.9,15,23.2,28.8,34.1c13.8,11,26,53.7,53.6,45.5
				c27.7-8,80.5-174.3,85.4-202.7C-116.6-618.6-101.9-629.1-121.4-633.6z"/>
			<path fill="#396F8E" stroke="#3C84A4" stroke-linecap="round" stroke-linejoin="round" d="M-140.8-623.5
				c-20.9,3-77.2,91-90.6,119.5c-13.4,28.4-41.4,67.3-61,81.6c-19.7,14.2-67.4,37.2-88.4,47.7c-20.9,10.4-20.5,15.4-9.2,23
				c11.3,7.5,18.3,7,22.4,15.6c4,8.8,0.8,23.1,6.8,30.1s41.5,48.3,78.1,4s88.8-124,106.5-160c20-40.9,46-103.8,46.8-121.8
				c0.5-12.1,5.6-42.4-11.4-39.8V-623.5z"/>
			<path fill="#224F68" d="M-126.4-618.7c-10.9,1.7-46,41-58.6,64c-12.5,23-64,158.2-86.6,178.3l-2,1.9l-0.4,4.8
				c-1,17.8-0.9,29.3,0.9,39.8c2.1,13.2,7,23,15.1,29.3c17.2,13.3,49.3,12,100.7-6.4c13.5-41,33.5-137.2,36.3-176.1
				c3-40.2,5.5-137.2-5.4-135.7V-618.7z"/>
			<path fill="#215A7A" stroke="#215A7A" stroke-linecap="round" stroke-linejoin="round" d="M-273.8-374.4
				c-24,21.4-92.1,84.4-104,95.9c-12.2,11.7-24.3,32.6-12.2,37.2c12.2,4.6,55.7-5,72,0c16.3,5,45.6,43.5,57.3,52.8
				c11.7,9.2,27.6,15,42.3-3.8c14.6-18.9,46.4-72,59.8-110.5l1.3-4.2c-51.5,18.5-83.6,19.9-100.7,6.5c-8.3-6.4-13-16.2-15.2-29.4
				C-275.3-344.6-275.5-359.6-273.8-374.4L-273.8-374.4z"/>
			<path fill="#226380" d="M-241.3-409.8c1.2,27,7,31.4,15.4,38.3c8.6,6.9,28.9-2,50.4,0.4c20.7,2.3,32,34.3,55.3,30.6l2-0.6
				c-5.7-6-19.2-12.9-35.1-36.2c-16-23.3-23.3-15.4-47.2-9.3C-223.6-380.8-230.5-401-241.3-409.8L-241.3-409.8z"/>
			<path fill="#3C80A6" d="M-108-639.7c-22.8-1.2-57.3,9.4-68.3,25.2c-11,15.9-66.1,177.8-65,204.7c10.8,8.8,17.7,29,40.8,23.2
				c24-6.1,31.3-14,47.2,9.3c15.9,23.3,29.4,30.2,35,36.2c-0.6,0.3-1.2,0.4-1.9,0.6l2.8-0.5c25.2-7,23.6-16.3,23.6-29.3
				s-1.6-153.2-6-186.9c-4.7-33.7,14.4-81.3-8.3-82.5H-108z"/>
			<path fill="#235E78" stroke="#316F92" stroke-width="4.5" stroke-linecap="round" stroke-linejoin="round" d="M-109.6-608.3
				c-2,14.6-27.6,213.4-17.2,227.7c8.4,11.4,14.8,27.2,22.3,26.5c1.3,0,2.6-0.6,4-1.8l2-1.9c1.6-2,2.6-9.1,2.6-11.5
				c0-13,0.5-154.2-4-187.9c-2.6-20,0.8-47.6,1-64.8C-100.4-622.8-107.9-620.8-109.6-608.3z"/>
			<path fill="#396F8E" stroke="#3C84A4" stroke-linecap="round" stroke-linejoin="round" d="M-127.6-634.6
				c-35.7,39.4-16.4,113.5-59.2,143l-2.6-1c35.5-44,20-101.3,59.3-143.3"/>
		</g>
		<g id="Am">
			<path fill="#FFF3E2" d="M15.5-546.2c21-0.1,35.3-0.6,42,36c6.8,36.7,18.7,132.8,25,144c6.3,11.1,26.4,22.2,23,36
				c-3.3,13.7-19.9,16.8-30.6,5.5c-10.7-11.2-54-102.8-73.3-144.6s-7.2-76.9,13.9-77L15.5-546.2z"/>
			<path fill="#70B8D8" d="M-47.7-426.1c3.1,17.2,10,27.4,21,32.8s40.7,1.4,63.7-6.2c22.9-7.6,51.9-16.8,57.6-29.1
				c5.7-12.4-4-27.7-9.8-36.7c-5.8-8.9-34.5-1.5-45.2,2.8c-10.6,4.3-56.7,18-67,21C-37.8-438.5-50.8-443.5-47.7-426.1z"/>
			<path vectornator:blendMode="Multiply" fill="#3285BA" d="M70.7-469.5c-10.7,0.4-24.4,4.4-31,7c-10.7,4.3-56.8,18-67.2,21
				c-10.2,3-23.2-1.9-20.2,15.4c3.1,17.2,10,27.4,21,32.8s40.7,1.4,63.7-6.2c17.6-5.8,38.8-12.7,50.2-21.1
				c-29,12.2-60,19.3-91.5,20.8c-36.8,0.8-29-7,3.8-16.3c31.5-9.8,60.1-27.4,83.1-51.1C79.9-469,75.6-469.6,70.7-469.5L70.7-469.5z"
				/>
			<path fill="#70B8D8" d="M-64.9-751.7c-28.3,6.7-52.3,15.4-62.2,35.7c-9.8,20.3-26.4,74.4-18.4,113.2
				c8,38.8,41.8,152.7,68.8,171.1c27,18.5,67.7,13.6,78.2-0.6c25.2,3.7,75-17.2,83-37c8-19.6,17.3-52.8-1.2-114.4
				C65-645.2,30.5-730.8,5.3-746.8c-25.3-16-41.9-11.7-70.2-5V-751.7z"/>
			<path vectornator:blendMode="Multiply" fill="#3285BA" d="M-132.7-702.1c-9.3,25.3-19.4,67.4-12.8,99.3
				c8,38.8,41.8,152.7,68.9,171.1c27,18.5,67.7,13.6,78.2-0.6c15.5,2.3,40.4-4.8,59-15.2C-83.6-475.5-128.9-622.2-132.7-702.1z"/>
		</g>
		<g id="HrFr">
			<path fill="#989282" d="M-13.4-1240.5c28.8,47.4,51.8,148.1,41,218.5C17-951.6,2.8-896.3-15.3-871.8c-8.8,12.3-14.1,13.2-2.4,25
				c11.7,11.7,41,58,53.3,86.4c12.2,28.5,32.8,66.1,23,84.2c-9.9,18-10.9,17.5-22.6,21.4c-0.5,22.5-18.1,15.2-28.9,11.3
				c-1,9.3-19.5,11.7-31.7,7.3c-2.5,12.7-17.2,6.4-27-1.5c-9.6-7.8-24.4-37.1-23.8-68.9c0.5-31.8,4.4-111.5,6.4-129
				c2-17.7,3.4-23-10.8-18.7c-14.2,4.4-55.7,15.7-82.6,5c-49-20-85.3-62.5-97.3-114c-22-90-15-152.3-4.4-177.5
				c39.7-94.7,222-147.1,250.8-99.7H-13.4z"/>
			<path fill="#3C80A6" stroke="#3C84A4" stroke-linecap="round" stroke-linejoin="round" d="M-55.2-859.9c-13-3-16.5,4-28.2,14.2
				c-11.8,10-65.7,70.7-62.6,83.6c3,12.8,34,37.3,45.5,30.3c11.4-7,45-100.3,47.6-109.8C-50.3-851.2-46.9-858.1-55.2-859.9z"/>
			<path fill="#235E78" stroke="#316F92" stroke-width="4.5" stroke-linecap="round" stroke-linejoin="round" d="M-50-854.8
				c0.2-5.7-14.8,11-21.6,26.2c-6.8,15.2-43.4,84.5-37.2,91.8c6.3,7.4,13.9,7.1,18.9-0.5C-85-744.8-50.2-844.3-50-854.8L-50-854.8z"
				/>
			<path fill="#3C80A6" stroke="#3C84A4" stroke-linecap="round" stroke-linejoin="round" d="M-52-864.4c7.8,3.5,10.2,5.3,8.4,24
				c-1.9,18.8-16.6,158.6-23.5,171.8s-33.6,14.2-32.3-7.6c1.4-21.8,20-106,25.8-140c5.8-34.1,13.6-51.7,21.5-48.2H-52z"/>
			<g>
				<path fill="#396F8E" d="M-27.4-855.3c-10.3-2.8-38.4-9.3-52,2.7c-13.5,12-9.2,16.2-1.2,14.1c8-2,30.8-8.1,46.4-9.3
					C-18.6-849.1-17.2-852.5-27.4-855.3z"/>
				<path fill="#3C80A6" stroke="#3C84A4" stroke-linecap="round" stroke-linejoin="round" d="M-29-857.2
					c-9.7-4.4-38.2-12.6-51.7-0.5c-13.6,12-9.4,25-0.7,15.7c5.8-6,31-12.8,46.4-10.4C-19-849.9-17.2-851.8-29-857.2z"/>
			</g>
		</g>
		<g id="Rb2">
			<path fill="#396F8E" stroke="#3C84A4" stroke-linecap="round" stroke-linejoin="round" d="M-182.9-1252.6
				c-25.8,22.7-50,47.1-72.6,73c-8,10.6-15.3,21.8-21.9,33.4c-2.6,5-11.8,8-13,2c-1.4-8-6-18.6-7.5-23.3c-1.6-4.6-5.8-6.9-11.7-7
				c-7,0-18.7,1.6-24.5,2c-6.2,0.3,0.6-14,5.2-19.5c46.7-63.7,87.2-83.5,107-92.3C-202.1-1293.2-168.3-1264.8-182.9-1252.6z
				 M-155.4-1348c4.7-8.7,13-18.7,6.9-20.7c-6.1-2-37.8-4.5-48,2c-10,6.7-10.5,11.5-14.4,14.2c-3.8,2.6-17.4,9.5-21.4,12.7
				c-4,3.2-5.2,11.4-6.4,17.2c-1.2,5.9-5,9.6-0.3,13.8c4.6,4.3,6.4,6,15.3,4.5c8.8-1.3,24.2-25.8,36.8-30.6c10-3.7,28.7-8,31.6-13.1
				H-155.4z"/>
			<path fill="#3C80A6" d="M-209.8-1323.2c-2.7-4.8-2.4-14.5,3-19.7c5.5-5.1,31.5-18.7,40.5-18.3c8.9,0.6,12.4,4,8.9,11.2
				c-3.7,7.1-14.5,12.7-23.2,15.4c-7.8,1.7-15.1,5.1-21.5,10C-206.8-1319.9-207.1-1318.6-209.8-1323.2L-209.8-1323.2z"/>
			<path fill="#396F8E" stroke="#3C84A4" stroke-linecap="round" stroke-linejoin="round" d="M-139.5-1253.4
				c-25.8,38.8-58.3,92.2-62,147c-1,8.7-2.5,23.5-12,21.8c-9.3-1.6-27.3-8-35.5-5.5c-8.2,2.4-30.3,24-34.8,29.7
				c-4.5,5.7-12.3,12.3-18,3.3c-5.7-9-7.7-16.8-6.5-30.7c1.3-14,6.7-53.5,22.7-85.4c16-31.8,45.2-81.6,68.5-102.4
				C-193.7-1296.4-113.6-1292.2-139.5-1253.4z"/>
			<path fill="#3C80A6" d="M-163.3-1232.6c-15,21.3-26.7,44.7-34.8,69.4c-6.2,18.3-10.6,37.2-13.2,56.3c-1.5,12.4-5.3,11-14.7,8.9
				c-9.4-2-17.7-4-26.8-1.1c-9.1,3-30.3,24-37.2,33.4c-7,9.4-17.6,13.9-19.6-7c-2-20.8,6.2-58,14-81.3c7.9-23.3,38.2-73.9,52.2-93.5
				s30.3-39.6,52.8-42s47-11.3,50.3,7C-137.1-1264-147.8-1256.3-163.3-1232.6L-163.3-1232.6z"/>
			<path fill="#396F8E" stroke="#3C84A4" stroke-linecap="round" stroke-linejoin="round" d="M-220.4-1266.4
				c-19.4,25.8-26,37.7-34.6,68.4c-3.9,14-4.8,28.6-4.8,42.6c1.3,11.4,3.1,22.8,5.3,34.1c0-12.4,9.4-22.4,24-41.8
				c11.8-15.5,34.5-39.4,47.4-65.5c2.9-5.7,12-29.1,13.5-35.2c3-12.2,10-42.4-6.2-42.6C-192.6-1306.7-214.6-1274.2-220.4-1266.4z"/>
			<path fill="#3C80A6" d="M-160.3-1350.5c10.1-2.3,22,10.4,44.8,18.3c16.7,5.6,48.6,19.6,52.9,27.3c4.6,8.1,7.4,8.8,10.3,25.5
				c4.8,28.2-45,22.2-66,28.8c-17.7,5.6-35.9,37.2-48.8,41.9c-18.8,6.7-37.2,10.8-47.9,3.8c-20.7-13.6-21.2-33.1-20.3-52
				c1.2-25,11-60.1,21-68.1c10.4-8,23.7-18.6,31.2-14.2C-170.3-1347.2-170.6-1348.2-160.3-1350.5L-160.3-1350.5z"/>
			<path fill="#396F8E" d="M-219.1-1318.6c-8.2,13.2-15.2,40.7-16.2,61.6c-0.9,18.9-1.2,39.7,20.3,52c16.1,9.1,29,8.7,47.9-3.8
				c11.5-7.6,31.2-36.2,48.8-41.8c10.8-3.4,29.5-3.9,44.3-7.5c-18.2-2.2-37.6-9.9-55.5-3.9c-20.4,6.8-48.5,47.9-73,38.7
				c-20.4-7.7-19-48.7-19-70c0-8.8,1.2-16.8,2.3-25.4L-219.1-1318.6z"/>
			<path fill="#396F8E" stroke="#3C84A4" stroke-linecap="round" stroke-linejoin="round" d="M-181.4-1337.6
				c21.8,2.7,28.8,43.2,15.8,51.7l-2.5-0.4c6.3-19-18.2-38.6-13.2-51.3 M-205.5-1334.6c8.7-2.6,37.6-19.7,45.4-15.7v0.6
				c-2.6,2.3-10,2.7-13.4,4.2c-10.5,4.5-20.4,11-31.4,14"/>
		</g>
	</g>
</g>
</svg>
