<?xml version="1.0" encoding="utf-8"?>
<!-- Generator: Adobe Illustrator 22.0.1, SVG Export Plug-In . SVG Version: 6.00 Build 0)  -->
<svg version="1.1" id="レイヤー_1" xmlns="http://www.w3.org/2000/svg" xmlns:xlink="http://www.w3.org/1999/xlink" x="0px"
	 y="0px" width="123.6px" height="118px" viewBox="0 0 123.6 118" enable-background="new 0 0 123.6 118" xml:space="preserve">
<linearGradient id="SVGID_1_" gradientUnits="userSpaceOnUse" x1="-20.3657" y1="-45.0889" x2="30.6083" y2="63.0035">
	<stop  offset="0" style="stop-color:#FFDE4F"/>
	<stop  offset="1" style="stop-color:#FFBB2E"/>
</linearGradient>
<path fill="url(#SVGID_1_)" d="M-4.4-54.2c2.4-4.9,6.4-4.9,8.9,0L16-30.7c2.4,4.9,8.9,9.6,14.3,10.4l25.9,3.8
	C61.7-15.8,63-12,59-8.1L40.3,10.1C36.3,14,33.9,21.6,34.8,27l4.4,25.8c0.9,5.4-2.3,7.8-7.2,5.2L8.9,45.8C4,43.2-4,43.2-8.8,45.8
	L-32,58c-4.9,2.6-8.1,0.2-7.2-5.2l4.4-25.8c0.9-5.4-1.5-13-5.5-16.8L-59-8.2c-3.9-3.8-2.7-7.6,2.7-8.4l25.9-3.8
	c5.4-0.8,11.9-5.5,14.3-10.4L-4.4-54.2z"/>
</svg>
