<svg xmlns="http://www.w3.org/2000/svg" width="183.14" height="168.52" viewBox="0 0 183.14 168.52"><title>BdTp</title><g id="レイヤー_2" data-name="レイヤー 2"><g id="レイヤー_1-2" data-name="レイヤー 1"><g id="BdTp"><path d="M124.08,17.19c10.33,8.94,56.79,90.66,48.86,113.9s-57.48,27.51-78.07,27.2-88.28,2-87.65-17.95S-5.62,28.14,21.83,22.92,57.4,34.19,81.27,31.54s32.55-23.29,42.81-14.29Z" fill="#70b8d8"/><path d="M181.25,156.27c-3.65,5.67-11.71,6.24-21,7.68-35.14,5.48-114,7.75-151.18-8.5-8.81-3.9-12.72-25.18-2.64-29,7.87-3,45.08,13.29,73,13s66.62-1,83.49-4.41c8.31-1.7,13.6-1,15.55,5.29S184.84,150.67,181.25,156.27Z" fill="#396f8e" stroke="#3c84a4" stroke-linecap="round" stroke-linejoin="round"/><path d="M120.12,5c6.61,2.83,16.68,19.64,12,34.44S102.49,65.61,78.56,65.92c-31.73.32-68.5-19.2-65.17-37S19.19,14.54,25,17.13,49.91,38.85,65.53,38.41,94.17,37,107.84,27.07C115.9,21.16,117.16,3.78,120.12,5Z" fill="#58a2cc"/><path d="M118.86,0c6.61,2.33,16.68,16.37,12,28.65S101.23,50.37,77.3,50.56c-31.73.31-68-9.45-64.66-24.18s10.2-17.44,16-15.3,20,17,35.64,16.69,28.65-1.26,42.31-9.45C114.7,13.41,115.9-1,118.86.06Z" fill="#fff8e2"/></g></g></g></svg>