<svg xmlns="http://www.w3.org/2000/svg" width="404.93" height="450.68" viewBox="0 0 404.93 450.68"><title>Sk</title><g style="isolation:isolate"><g id="レイヤー_2" data-name="レイヤー 2"><g id="レイヤー_1-2" data-name="レイヤー 1"><g id="Sk"><path d="M242.06,1.53C267.8,7,286.65,42.26,306.87,85.75,314.92,103.09,420.4,328.11,403,368.6s-59.37,53.58-84,61.26-91.8,21.66-128,20.78C79.71,447.87.38,383.77,0,347.88-.49,304,48.72,153.16,104.87,71.75c15.31-22.21,41-37,64-44C193.87,6.75,214.87-4.25,242.06,1.53Z" fill="#70b8d8"/><path d="M10.22,286.43C3.61,312.27-.11,334.47,0,347.88c.37,35.89,79.71,100,191,102.76,36.2.88,103.45-13.1,128-20.78s66.49-20.78,84-61.26c4.34-10.08.94-31.29-6.8-57.61-52.56,33.28-133.71,58.28-189.56,56.73S63,338.44,10.22,286.5Z" fill="#4a98b9"/><path d="M4.74,310.55c-3,15.23-4.85,28.33-4.72,37.33.37,35.89,79.71,100,191,102.76,36.2.88,103.45-13.1,128-20.78s66.49-20.78,84-61.26c3.14-7.37,2.14-20.78-1.58-37.65-51,26.82-144.81,68.63-220.37,57.29C113.66,378.11,59.26,352.8,4.74,310.55Z" fill="#396f8e"/><path d="M20.79,349.27l8.69,5.23a4.14,4.14,0,0,0,1.66.77,2.76,2.76,0,0,0,1.58-.63,3.32,3.32,0,0,0,.31-4.53c-.5-.63-.82-.76-2-.95l-9.51-1.38,8.18-5.23.82-.63c1.26-1.13,1.26-2.64.13-4.09s-2.51-1.56-3.75-.27a1.65,1.65,0,0,0-.63.75l-5.85,8.06-.19-10.32c0-1.26-.13-1.64-.63-2.21a2.64,2.64,0,0,0-3.71-.48l-.2.17c-1,.94-1.19,1.89-.56,3.52l3.59,9.76-8.58-5.1c-1.51-.88-2.39-.81-3.4.07A3.12,3.12,0,0,0,6.49,346a2.77,2.77,0,0,0,2,.94l9.7,1.57-8.38,5a5,5,0,0,0-.82.63A2.33,2.33,0,0,0,8,356a3.14,3.14,0,0,0,.75,2c1.2,1.45,2.58,1.7,3.78.63l.82-.88,6-7.87v10.14c0,1.26.13,1.63.63,2.2a2.84,2.84,0,0,0,4,.56l0,0,.25-.22a2.44,2.44,0,0,0,.82-1.51,4,4,0,0,0-.44-1.89Zm38.54,29.34-6.74-.82,1.26,3.78a7,7,0,0,1,.25,1.51,1.77,1.77,0,0,1-.44,1.26c.13-.13.06-.13-.13,0l-.63.44-.62.63a1.63,1.63,0,0,1-1-.44,7.65,7.65,0,0,1-2.84-4.79l-1.19,1.14c-.44.63-.63,2-.69,4.28l-.51.57a15.74,15.74,0,0,1-2.52-.63c-.63-.51-.82-1.64-.63-3.4v.06c.29-1.63.52-3.27.7-4.91l-4.79.31a5.54,5.54,0,0,1-3.59-.63l-.63-.69L34,375.15l.88-1.07,6.8-.76a5.07,5.07,0,0,0-.44-1.76,5.9,5.9,0,0,0-1.63-2.14l-1.43-1.58a3.22,3.22,0,0,1-.63-1.07,4.22,4.22,0,0,1,4.41-.63l1.51.95,2.77,2.08.19-.57.06-.5.13-.63.06-.82a1.33,1.33,0,0,0,.06-.88,5.32,5.32,0,0,1,.38-2.4,2.74,2.74,0,0,1,2-.82,3.81,3.81,0,0,1,2.07.45c.63.5.63,1.88,0,4.4L49.9,373l10.57.88a1.36,1.36,0,0,1,.44.88,4.46,4.46,0,0,1-.12,1.26,9.39,9.39,0,0,1-1.39,2.39Zm20.46,12.21,11.84,1.64c1.51.19,1.7.25,2.26.06a2.74,2.74,0,0,0,1.45-1.25,3.36,3.36,0,0,0-1.23-4.59,2.44,2.44,0,0,0-.28-.14c-.76-.37-1.13-.37-2.52-.06L80,389l7-8.63a3.44,3.44,0,0,0,.63-.94c1-1.76.44-3.21-1.51-4.22s-3.34-.5-4.35,1.26a5.87,5.87,0,0,0-.44,1.07l-3.14,10.51-4.36-10.38c-.51-1.2-.82-1.52-1.64-1.89A3.39,3.39,0,0,0,67.64,377c-.69,1.38-.51,2.39.88,3.77l7.93,8.38-11.71-1.58c-2-.25-3,.13-3.71,1.45a3.16,3.16,0,0,0,1.25,4.28h0l.13.07a3.22,3.22,0,0,0,2.58.12l11.53-2.39-7.38,8.5a5.93,5.93,0,0,0-.63.94,2.55,2.55,0,0,0-.38,2.33,3.45,3.45,0,0,0,1.7,1.77c1.89.94,3.59.63,4.41-1a4.31,4.31,0,0,0,.63-1.2l3.46-10.39,4.16,10.27c.5,1.26.75,1.57,1.57,1.95a3.56,3.56,0,0,0,4.84-1.44h0a2.52,2.52,0,0,0,.31-1.89c-.18-.5-.31-.63-1.26-1.7l-8.18-8.44Zm45.46,10.27-6.61,1.51,2.58,3.15a7.22,7.22,0,0,1,.88,1.32,1.46,1.46,0,0,1,0,1.26l-.13.12-.37.63c-.13.25-.26.5-.38.76a1.52,1.52,0,0,1-1.07,0,7.82,7.82,0,0,1-4.47-3.59l-.63,1.51c-.25.63,0,2.08.88,4.22l-.25.69a9.68,9.68,0,0,1-2.52.25c-.82-.25-1.45-1.25-1.89-2.89s-.74-3.21-1.2-4.79l-4.34,1.89a6,6,0,0,1-3.59.63,3.82,3.82,0,0,1-.82-.44l-1.07-.82.44-1.32s2-1.07,6.11-3a5.07,5.07,0,0,0-1.13-1.51,6.26,6.26,0,0,0-2.27-1.45,9.77,9.77,0,0,1-1.89-1,3.06,3.06,0,0,1-1-.82,4.22,4.22,0,0,1,3.91-2l1.76.31,3.34,1.07v-.63l-.13-.5-.19-.63-.19-.76a1.94,1.94,0,0,0-.25-.88,5.37,5.37,0,0,1-.56-2.33,2.52,2.52,0,0,1,1.57-1.44,3.13,3.13,0,0,1,2.08-.26c.75.19,1.26,1.58,1.7,4l.88,5.67,10.2-2.64a1,1,0,0,1,.75.62,3.34,3.34,0,0,1,.32,1.2,4.63,4.63,0,0,1,0,1.39,5.09,5.09,0,0,1-.38,1.26v.25ZM147,415.82l11.71-2.2a4.63,4.63,0,0,0,2.15-.63,2.51,2.51,0,0,0,.88-1.7,3.33,3.33,0,0,0-2.68-3.87l-.32,0c-.88-.12-1.26,0-2.52.7l-9.7,5.91,3.59-10.32.32-1.13c.31-1.89-.76-3.15-2.9-3.47s-3.34.57-3.65,2.52l-.06,1.13.62,11-7.7-8.45c-.88-1-1.26-1.26-2.2-1.33a3.24,3.24,0,0,0-3.76,2.59.5.5,0,0,1,0,.12c-.25,1.45.25,2.33,2.08,3.28l10.39,5.35-11.59,2.2c-2,.38-2.77,1.07-3,2.52a3.22,3.22,0,0,0,2.72,3.64h.11A3.43,3.43,0,0,0,134,423l10-5.92-4,10.33-.25,1.07a2.7,2.7,0,0,0,.44,2.33,3.27,3.27,0,0,0,2.2,1.13c2.14.32,3.59-.56,3.91-2.33a4.45,4.45,0,0,0,.06-1.26l-.31-10.95,7.49,8.37c.94,1,1.26,1.26,2.14,1.39a3.51,3.51,0,0,0,4.07-2.83,1,1,0,0,0,0-.17,2.43,2.43,0,0,0-.38-1.89c-.31-.38-.5-.51-1.82-1.2L147,415.73Zm46.34-3.4-5.85,3.34L191,418a6.76,6.76,0,0,1,1.26,1,2.12,2.12,0,0,1,.44,1.26c0-.19,0-.19-.12.13l-.19.63c0,.29-.1.58-.13.88a1.67,1.67,0,0,1-1.1.35,8.19,8.19,0,0,1-5.35-2.14l-.13,1.64c0,.63.69,1.89,2.21,3.78v.69a12.72,12.72,0,0,1-2.4.94c-.82,0-1.7-.69-2.7-2.2-.84-1.44-1.72-2.84-2.65-4.22l-3.52,3.09a5.33,5.33,0,0,1-3.22,1.57,2.18,2.18,0,0,1-1-.19,11.77,11.77,0,0,1-1.26-.44v-1.38l4.91-4.6a5.43,5.43,0,0,0-1.51-1.13,7.16,7.16,0,0,0-2.65-.76c-.71-.1-1.43-.22-2.14-.38a4.77,4.77,0,0,1-1.19-.5,4.12,4.12,0,0,1,3.14-3.09l1.7-.18,3.53.06-.19-.57-.31-.5-.38-.57-.38-.63a2.33,2.33,0,0,0-.57-.75,5.05,5.05,0,0,1-1.25-2.08,2.5,2.5,0,0,1,1.07-1.83,3,3,0,0,1,1.88-.82c.82,0,1.77,1.07,2.9,3.34l2.58,5.23,8.94-5.54a1.24,1.24,0,0,1,1,.44,4,4,0,0,1,.63,1,3,3,0,0,1,.44,1.33l.12,1.38v.19Zm28.84,4.85,11.14-4.16a4.81,4.81,0,0,0,2-1,2.79,2.79,0,0,0,.63-1.83,3.52,3.52,0,0,0-3.68-3.35h-.1c-.82,0-1.2.19-2.27,1.14l-8.44,7.49,1.65-10.83.06-1.13c0-2-1.32-3-3.52-2.9s-3.15,1.07-3.15,3.15a5.58,5.58,0,0,0,.19,1.07l2.71,10.7-9.29-6.92a2.88,2.88,0,0,0-2.33-1,3.24,3.24,0,0,0-3.27,3.21V411c0,1.51.69,2.33,2.71,2.9l11.2,3.52-11,4c-1.88.76-2.51,1.58-2.51,3.09a3.4,3.4,0,0,0,3.52,3.08,2.8,2.8,0,0,0,2.27-1.07l8.81-7.55-2,10.89-.13,1.13a2.75,2.75,0,0,0,1,2.21,3.27,3.27,0,0,0,2.33.69c2.2,0,3.46-1.13,3.4-3a2.85,2.85,0,0,0-.19-1.26l-2.33-10.7,8.94,6.92c1.13.89,1.51,1.07,2.39,1a3.32,3.32,0,0,0,3.47-3.15c0-.12,0-.25,0-.37a2.48,2.48,0,0,0-.69-1.83c-.44-.38-.63-.38-2-.88l-11.4-3.46Zm48.73-7-5.47,3.78,3.65,1.95,1.26.94a1.76,1.76,0,0,1,.63,1.2c0-.19-.07-.13-.13.13l-.13.63c0,.31-.05.62-.06.94a1.71,1.71,0,0,1-1,.38,8.58,8.58,0,0,1-5.54-1.7v1.63c.07.7,1,1.89,2.52,3.59l.06.7a12.82,12.82,0,0,1-2.26,1.19c-.82,0-1.76-.63-2.9-2-.94-1.38-1.94-2.72-3-4L255.3,423a6.29,6.29,0,0,1-3.09,1.89l-.94-.13-1.26-.38-.19-1.38,4.41-5a5.38,5.38,0,0,0-1.58-.94,6.72,6.72,0,0,0-2.7-.51l-2.11-.31a3.75,3.75,0,0,1-1.26-.38,4.06,4.06,0,0,1,2.83-3.33,8.57,8.57,0,0,1,1.73-.29l3.53-.25a.69.69,0,0,0-.26-.5l-.31-.51-.44-.5-.44-.63a2.44,2.44,0,0,0-.63-.69,5,5,0,0,1-1.45-2,2.62,2.62,0,0,1,.88-1.89,3.08,3.08,0,0,1,1.89-1c.76,0,1.76,1,3.15,3.14l3,5,8.37-6.3a1.42,1.42,0,0,1,1,.38,3.73,3.73,0,0,1,1.32,2.27l.25,1.32v.16Zm26.7-4.53,10.5-5.66c1.26-.69,1.45-.82,1.76-1.26a2.46,2.46,0,0,0,.32-1.89,3.45,3.45,0,0,0-4-2.8l-.15,0c-.88.13-1.26.38-2.14,1.45l-7.24,8.56v-10.9a3.13,3.13,0,0,0-.12-1.14c-.32-1.89-1.77-2.77-3.91-2.39s-3,1.58-2.58,3.53a2.38,2.38,0,0,0,.32,1.07l4.28,10.2-10.2-5.61a3.75,3.75,0,0,0-2.52-.63,3.21,3.21,0,0,0-2.66,3.69s0,.06,0,.09c.26,1.45,1,2.14,3.09,2.52L294,406.49,283.71,412c-1.76,1-2.26,1.89-2,3.4a3.34,3.34,0,0,0,3.9,2.52,2.93,2.93,0,0,0,2.14-1.32l7.56-8.63-.38,11a4.3,4.3,0,0,0,.12,1.13,2.57,2.57,0,0,0,1.26,2.08,3.83,3.83,0,0,0,2.4.37c2.14-.37,3.21-1.63,2.89-3.4a3,3,0,0,0-.37-1.25l-3.91-10.27,9.82,5.61c1.26.69,1.63.82,2.52.63a3.35,3.35,0,0,0,2.94-3.72,2.33,2.33,0,0,0-.05-.28,2.9,2.9,0,0,0-1-1.64c-.44-.31-.63-.31-2.14-.63l-11.83-1.82Zm39.85-18.14-3.58,4.22,3.21.95a5.1,5.1,0,0,1,1.26.5,1.56,1.56,0,0,1,.63.88v.76a2.45,2.45,0,0,0,.12.75,1.34,1.34,0,0,1-.75.44,6.27,6.27,0,0,1-4.66-.31l.31,1.26c.19.63,1.07,1.45,2.71,2.58l.12.63a9.53,9.53,0,0,1-1.51,1.32c-.63.25-1.51-.19-2.64-1.13s-2.07-1.88-3.15-2.77l-1.89,3.4a4.5,4.5,0,0,1-2.08,2.14l-.75.06h-1.07l-.38-1.2,2.52-5a4.83,4.83,0,0,0-3.72-.44l-1.7.19a2.61,2.61,0,0,1-1.07-.13,3.64,3.64,0,0,1,1.58-3.27l1.32-.57L325,392l-.32-.44-.31-.31a2.67,2.67,0,0,0-.44-.38l-.51-.44a1.42,1.42,0,0,0-.63-.44c-.88-.63-1.38-1.13-1.44-1.39a2.11,2.11,0,0,1,.31-1.76,2.58,2.58,0,0,1,1.26-1.2c.57-.18,1.57.51,3,2.08l3.4,3.53,5.35-6.74a1.23,1.23,0,0,1,.82.13l.82.63.63,1,.44,1.07v.19Zm24.56-8.81,7.3-7.43c.88-1,1-1.07,1.14-1.57a2.52,2.52,0,0,0-.26-1.64,3.26,3.26,0,0,0-4.4-1.26c-.7.31-.88.63-1.39,1.7l-3.78,9.13-3.14-9.19a7.84,7.84,0,0,0-.38-.95,2.72,2.72,0,0,0-4-1c-1.67.89-2.14,2-1.26,3.66l.63.81,6.61,7.5-10.39-2.14a3.14,3.14,0,0,0-2.33.12,2.81,2.81,0,0,0-1.3,3.75l0,.09c.7,1.2,1.58,1.58,3.4,1.26L359,380.27l-7.18,7.36c-1.26,1.26-1.39,2.21-.69,3.34a3.15,3.15,0,0,0,4,1.26c.75-.38,1-.69,1.45-1.76l4-9.2,2.9,9.32.38,1c.5.88.94,1.26,1.63,1.38a3.31,3.31,0,0,0,2.27-.31c1.7-.82,2.27-2.21,1.45-3.59a4,4,0,0,0-.63-1l-6.36-7.61,10.07,2.2a3.37,3.37,0,0,0,2.4-.06,2.84,2.84,0,0,0,1.48-3.74,3.26,3.26,0,0,0-1.48-1.55c-.51-.19-.63-.13-2,0L362,378.77Zm33.5-31.67-1.89,5.22,3.59-.31h1.38a1.58,1.58,0,0,1,1,.63c-.13-.19-.13-.13,0,.13l.25.5c.12.21.25.42.38.63a1.05,1.05,0,0,1-.51.75,6.87,6.87,0,0,1-4.72,1.45l.88,1.14c.38.44,1.58.88,3.59,1.32l.38.5-.94,1.89c-.57.38-1.58.38-3.09-.06s-2.76-1-4.15-1.39l-.51,3.84a4.18,4.18,0,0,1-1.26,2.77l-.63.44-1.13.32-.82-.95.57-5.6a5.23,5.23,0,0,0-3.78,1l-1.64.88a2.22,2.22,0,0,1-1.07.31,3.38,3.38,0,0,1,.25-3.65c1.1-1,2.23-2,3.4-2.89a2.15,2.15,0,0,0-.5-.19l-.44-.19-.63-.19-.63-.25-.76-.19a4.92,4.92,0,0,1-2-.69,2.3,2.3,0,0,1-.31-1.77,2.2,2.2,0,0,1,.69-1.57c.56-.38,1.82-.19,3.78.75l4.72,2,2.71-8.31a1.09,1.09,0,0,1,.81-.25l1,.31,1.07.63.82.88.13.13Z" fill="#fff8dd"/><path d="M389.44,312.75C324,353,246,368.91,189.85,363.37A327.23,327.23,0,0,1,11.41,289.71" fill="none" stroke="#4a98b9" stroke-linecap="round" stroke-linejoin="round" stroke-width="12.4" stroke-dasharray="1 30 10 30"/><path d="M398,328.87C332.52,369,244.81,392,188.59,386.42,112,378.86,55.49,347.19,12.14,311.55" fill="none" stroke="#396f8e" stroke-linecap="round" stroke-linejoin="round" stroke-width="12.4" stroke-dasharray="1 30 10 30"/><path d="M16.21,380.86C59.16,297.57,167.5,87.1,289,49.69h0c-14.14-25.77-28.82-44.32-46.9-48.16-27.19-5.78-48.19,5.22-73.19,26.22-23,7-48.69,21.79-64,44C48.72,153.16-.49,304,0,347.88.1,357.43,5.81,369,16.21,380.86Z" fill="#70b8d8" style="mix-blend-mode:multiply"/></g></g></g></g></svg>