<svg xmlns="http://www.w3.org/2000/svg" width="159.61" height="277.04" viewBox="0 0 159.61 277.04"><title>Am</title><g id="レイヤー_2" data-name="レイヤー 2"><g id="レイヤー_1-2" data-name="レイヤー 1"><g id="Am"><path d="M102.7,133.24c13.23-.07,22.23-.38,26.45,22.66s11.77,83.62,15.74,90.67,16.62,14,14.48,22.67-12.53,10.57-19.27,3.46-34-64.73-46.15-91-4.53-48.42,8.75-48.49Z" fill="#fff3e2"/><path d="M62.91,208.86c2,10.82,6.3,17.25,13.22,20.65s25.63.88,40.11-3.91,32.68-10.57,36.27-18.32-2.52-17.44-6.17-23.11-21.73-.94-28.46,1.77-35.7,11.33-42.19,13.22S61,197.9,62.91,208.86Z" fill="#70b8d8"/><path d="M137.46,181.53c-6.74.25-15.36,2.77-19.52,4.41-6.74,2.7-35.76,11.33-42.31,13.22S61,198,62.91,208.86s6.3,17.25,13.22,20.65,25.63.88,40.11-3.91c11.08-3.65,24.43-8,31.61-13.28a169.63,169.63,0,0,1-57.61,13.09c-23.17.51-18.26-4.4,2.39-10.26A124.67,124.67,0,0,0,145,183c-1.7-1.14-4.41-1.51-7.49-1.39Z" fill="#3285ba"/><path d="M52.08,3.85c-17.82,4.22-32.93,9.7-39.16,22.48S-3.7,73.17,1.33,97.6s26.32,96.14,43.32,107.73,42.63,8.56,49.24-.38c15.86,2.33,47.22-10.83,52.26-23.29s10.89-33.25-.76-72S112.15,17,96.28,6.94,69.9-.43,52.08,3.79Z" fill="#70b8d8"/><path d="M9.39,35.08C3.54,51-2.82,77.52,1.33,97.6c5,24.43,26.32,96.14,43.38,107.73S87.34,213.89,94,205c9.76,1.45,25.44-3,37.15-9.57C40.31,177.75,11.79,85.39,9.39,35.08Z" fill="#3285ba"/></g></g></g></svg>