<svg xmlns="http://www.w3.org/2000/svg" width="272.04" height="388.86" viewBox="0 0 272.04 388.86"><title>Hd</title><g id="レイヤー_2" data-name="レイヤー 2"><g id="レイヤー_1-2" data-name="レイヤー 1"><g id="Hd"><path id="Face" d="M252.69,97.73c14.49,25.69,15.18,55.91,14.23,67.62s-3.33,34.38-5.79,40.55-6.48,22.67-8,27.2-4.84,24.43-7.17,30.35a32.14,32.14,0,0,1-10,13.91c-4.22,3.22-15.93,12.34-21.85,13.48s-17.19,2.26-24.81,8.81A35.76,35.76,0,0,0,179,327.36c1,7.93,7.55,12.27,7.93,19.64s-4.41,25.31-8.44,29.66c-23.48,25.81-93.69,4.4-87.08-6.93,6.93-12,20.15-30.85,32.74-65.86,5.48-15.24-11.71-11.84-25.37-19.45S12.3,258,15.14,186.82,35,65.56,70.17,46.54s67.18-24.87,94.5-17.12C204.34,40.63,230.85,59.07,252.69,97.73Z" fill="#fff3e2"/><path id="HrTp1" d="M219.32,37c17.51,12,28.15,27,37.59,42.06s13.79,37.15,14.8,50.81-.13,41.81-5.35,42.19c.82-15.55-1.89-69.32-20.78-85.82s-96.7,36.85-139.64,55.17c-29,163-120,118-104.09-53.15.09-27.85,24.68-56.1,61.64-72.79C96.17.71,130.86-7.23,170.28,9c29.9,12.34,31.48,16,49.11,28Z" fill="#989282"/><path id="Eye" d="M215.23,232.47c3.53,4.85,6.11,15.18,3.65,20.72-1.19,2.58-4.28,7.74-8.56,5.85-6.11-2.71-4.6-19.64-2-24.36.88-1.45,5.28-4.41,6.92-2.21Z" fill="#534e48"/><path id="HrTp2" d="M249.36,87.22c11,19.33,11.64,46.4,9.32,62.33s-9.45,49.74-29.09,48c-8.31,9.63-11.46,5-16.88,1.51-6.92,13.47-14.29,11.14-17,5.41-7.55,13.1-18.89-6.8-22.54-14.73S131.81,86.21,158.31,66.19s80.09,1.7,91.05,21Z" fill="#989282"/><path id="Mouse" d="M236.32,270.06c-5.73-.13-12.59,2.46-13.53,7.18-.76,3.65,1.89,5.41,4.78,6.42,3.4-2.39,6.86-4.91,8.56-6.3a25.58,25.58,0,0,0,5.73-6,11.4,11.4,0,0,0-5.54-1.26Z" fill="#e39c92"/><g id="Cheek"><path d="M201.57,264.21a39.44,39.44,0,0,1,3.34,8.94c-1.33-2.84-2.52-5.8-3.91-8.63M198.42,266a96.14,96.14,0,0,1,3.78,10.07v.07a106,106,0,0,1-4.09-10m-3.4,1.57c1.57,3.34,3.84,7.43,4.53,11.15a100.75,100.75,0,0,1-5.1-11" fill="#d46e6e" stroke="#c55d5d" stroke-linejoin="round"/></g></g></g></g></svg>