<svg xmlns="http://www.w3.org/2000/svg" width="211.12" height="396.21" viewBox="0 0 211.12 396.21"><title>HrBk</title><g id="レイヤー_2" data-name="レイヤー 2"><g id="レイヤー_1-2" data-name="レイヤー 1"><g id="HrBk"><path d="M137.85,250.81c-8.18-1.89-10.39,2.52-17.75,8.94s-41.37,44.51-39.42,52.64,21.41,23.48,28.65,19.07,28.33-63.15,30-69.13S143.08,251.94,137.85,250.81Z" fill="#215a7a" stroke="#215a7a" stroke-linecap="round" stroke-linejoin="round"/><path d="M164.17,11.17C182.3,41,196.79,104.42,190,148.75s-15.62,79.14-27,94.57c-5.54,7.74-8.87,8.31-1.51,15.74s25.82,36.51,33.56,54.4,20.65,41.61,14.48,53-6.86,11-14.23,13.47c-.31,14.17-11.39,9.57-18.19,7.12-.63,5.85-12.28,7.37-20,4.59-1.58,8-10.83,4-17-.94s-15.36-23.36-15-43.38,2.77-70.2,4-81.22,2.14-14.48-6.8-11.78-35.07,9.89-52,3.15A102.61,102.61,0,0,1,9.09,185.71C-4.76,129-.35,89.81,6.32,74c25-59.63,139.78-92.62,157.91-62.78Z" fill="#807c71"/><path d="M155.36,251c-6.49-2.2-24.18-7.3-32.74,2.11s-5.8,12.71-.76,11.06,19.39-6.35,29.21-7.29S161.78,253.22,155.36,251Z" fill="#396f8e"/></g></g></g></svg>