<svg xmlns="http://www.w3.org/2000/svg" width="192.78" height="290.07" viewBox="0 0 192.78 290.07"><title>Rb1</title><g id="レイヤー_2" data-name="レイヤー 2"><g id="レイヤー_1-2" data-name="レイヤー 1"><g id="Rb1"><path d="M174.47,3.9c-12.28-2.83-40.93,9.7-54,24.55s-50.88,70.4-51.63,80.34S78.26,123.4,87,130.26s16.37,33.82,33.75,28.65S171.38,49.17,174.47,31.29,186.75,6.73,174.47,3.9Z" fill="#3c80a6" stroke="#3c84a4" stroke-linecap="round" stroke-linejoin="round"/><path d="M162.25,10.26c-13.16,1.89-48.6,57.29-57,75.24S79.14,127.87,66.8,136.88s-42.43,23.42-55.66,30-12.9,9.69-5.79,14.48,11.52,4.41,14.1,9.82.51,14.55,4.29,18.95,26.12,30.41,49.17,2.52S128.82,134.61,140,111.94c12.6-25.75,29-65.35,29.47-76.69.32-7.61,3.53-26.69-7.18-25Z" fill="#396f8e" stroke="#3c84a4" stroke-linecap="round" stroke-linejoin="round"/><path d="M171.32,13.28c-6.86,1.07-29,25.81-36.9,40.3S94.13,153.18,79.9,165.84L78.64,167l-.25,3c-.63,11.2-.57,18.44.56,25.06,1.33,8.31,4.41,14.48,9.51,18.44,10.83,8.38,31,7.56,63.4-4,8.5-25.81,21.1-86.38,22.86-110.87,1.89-25.31,3.46-86.39-3.4-85.44Z" fill="#224f68"/><path d="M78.51,167.1c-15.11,13.47-58,53.14-65.48,60.38C5.35,234.84-2.27,248,5.35,250.9s35.07-3.15,45.33,0,28.71,27.39,36.08,33.24,17.38,9.45,26.63-2.39,29.22-45.33,37.66-69.57l.81-2.65c-32.42,11.65-52.63,12.53-63.4,4.1-5.23-4-8.18-10.2-9.57-18.51a113.74,113.74,0,0,1-.38-28Z" fill="#215a7a" stroke="#215a7a" stroke-linecap="round" stroke-linejoin="round"/><path d="M99,144.81c.75,17,4.4,19.77,9.69,24.11s18.2-1.26,31.73.25c13,1.45,20.15,21.6,34.82,19.27l1.26-.38c-3.59-3.77-12.09-8.12-22.1-22.79s-14.67-9.69-29.72-5.85c-14.54,3.65-18.88-9.07-25.68-14.61Z" fill="#226380"/><path d="M182.9.06C168.55-.7,146.83,6,139.9,15.92S98.28,127.87,99,144.81c6.8,5.54,11.14,18.26,25.68,14.61,15.12-3.84,19.71-8.82,29.72,5.85s18.51,19,22,22.79a6.24,6.24,0,0,1-1.2.38l1.77-.31c15.86-4.41,14.85-10.27,14.85-18.45s-1-96.46-3.77-117.68c-3-21.22,9.06-51.19-5.23-51.94Z" fill="#3c80a6"/><path d="M181.9,19.83c-1.26,9.19-17.38,134.36-10.83,143.36,5.29,7.18,9.32,17.13,14,16.69a3.94,3.94,0,0,0,2.52-1.13l1.26-1.2c1-1.26,1.63-5.73,1.63-7.24,0-8.19.32-97.09-2.52-118.31-1.63-12.59.51-30,.63-40.8C187.69,10.7,183,12,181.9,19.83Z" fill="#235e78" stroke="#316f92" stroke-linecap="round" stroke-linejoin="round" stroke-width="4.5"/><path d="M170.56,3.27c-22.47,24.81-10.32,71.46-37.27,90l-1.64-.63C154,65,144.25,28.89,169,2.45" fill="#396f8e" stroke="#3c84a4" stroke-linecap="round" stroke-linejoin="round"/></g></g></g></svg>